# WaveFront *.obj file (generated by Autodesk ATF)

mtllib c80fe7e5-50bb-428c-97cb-55d31004955d.mtl

g Body1

v -1.200000 84.000000 0.700000
v -1.148889 84.000000 0.311771
v -0.999038 84.000000 -0.050000
v -0.760660 84.000000 -0.360660
v -0.450000 84.000000 -0.599038
v -0.088229 84.000000 -0.748889
v 0.300000 84.000000 -0.800000
v 0.688229 84.000000 -0.748889
v 1.050000 84.000000 -0.599038
v 1.360660 84.000000 -0.360660
v 1.599038 84.000000 -0.050000
v 1.748889 84.000000 0.311771
v 1.800000 84.000000 0.700000
v 1.748889 84.000000 1.088229
v 1.599038 84.000000 1.450000
v 1.360660 84.000000 1.760660
v 1.050000 84.000000 1.999038
v 0.688229 84.000000 2.148889
v 0.300000 84.000000 2.200000
v -0.088229 84.000000 2.148889
v -0.450000 84.000000 1.999038
v -0.760660 84.000000 1.760660
v -0.999038 84.000000 1.450000
v -1.148889 84.000000 1.088229
v -1.200000 0.000000 0.700000
v -1.148889 0.000000 1.088229
v -0.999038 0.000000 1.450000
v -0.760660 0.000000 1.760660
v -0.450000 0.000000 1.999038
v -0.088229 0.000000 2.148889
v 0.300000 0.000000 2.200000
v 0.688229 0.000000 2.148889
v 1.050000 0.000000 1.999038
v 1.360660 0.000000 1.760660
v 1.599038 0.000000 1.450000
v 1.748889 0.000000 1.088229
v 1.800000 0.000000 0.700000
v 1.748889 0.000000 0.311771
v 1.599038 0.000000 -0.050000
v 1.360660 0.000000 -0.360660
v 1.050000 0.000000 -0.599038
v 0.688229 0.000000 -0.748889
v 0.300000 0.000000 -0.800000
v -0.088229 0.000000 -0.748889
v -0.450000 0.000000 -0.599038
v -0.760660 0.000000 -0.360660
v -0.999038 0.000000 -0.050000
v -1.148889 0.000000 0.311771
vt -213.360000 10.972012 0.000000
vt -0.000000 10.972012 0.000000
vt -213.360000 11.969468 0.000000
vt -0.000000 11.969468 0.000000
vt -213.360000 -11.969468 0.000000
vt -0.000000 -11.969468 0.000000
vt -213.360000 -10.972012 0.000000
vt -0.000000 -10.972012 0.000000
vt -213.360000 -9.974557 0.000000
vt -0.000000 -9.974557 0.000000
vt -213.360000 -8.977101 0.000000
vt -0.000000 -8.977101 0.000000
vt -213.360000 -7.979645 0.000000
vt -0.000000 -7.979645 0.000000
vt -213.360000 -6.982190 0.000000
vt -0.000000 -6.982190 0.000000
vt -213.360000 -5.984734 0.000000
vt -0.000000 -5.984734 0.000000
vt -213.360000 -4.987278 0.000000
vt -0.000000 -4.987278 0.000000
vt -213.360000 -3.989823 0.000000
vt -0.000000 -3.989823 0.000000
vt -213.360000 -2.992367 0.000000
vt -0.000000 -2.992367 0.000000
vt -213.360000 -1.994911 0.000000
vt -0.000000 -1.994911 0.000000
vt -213.360000 -0.997456 0.000000
vt -0.000000 -0.997456 0.000000
vt -213.360000 0.000000 0.000000
vt -0.000000 0.000000 0.000000
vt -213.360000 0.997456 0.000000
vt -0.000000 0.997456 0.000000
vt -213.360000 1.994911 0.000000
vt -0.000000 1.994911 0.000000
vt -213.360000 2.992367 0.000000
vt -0.000000 2.992367 0.000000
vt -213.360000 3.989823 0.000000
vt -0.000000 3.989823 0.000000
vt -213.360000 4.987278 0.000000
vt -0.000000 4.987278 0.000000
vt -213.360000 5.984734 0.000000
vt -0.000000 5.984734 0.000000
vt -213.360000 6.982190 0.000000
vt -0.000000 6.982190 0.000000
vt -213.360000 7.979645 0.000000
vt -0.000000 7.979645 0.000000
vt -213.360000 8.977101 0.000000
vt -0.000000 8.977101 0.000000
vt -213.360000 9.974557 0.000000
vt -0.000000 9.974557 0.000000
vt -3.680177 -0.986101 0.000000
vt 3.680177 -0.986101 0.000000
vt -3.810000 -0.000000 0.000000
vt 3.810000 0.000000 0.000000
vt -3.680177 0.986101 0.000000
vt 3.680177 0.986101 0.000000
vt -3.299557 1.905000 0.000000
vt 3.299557 1.905000 0.000000
vt -2.694077 2.694077 0.000000
vt 2.694077 2.694077 0.000000
vt -1.905000 3.299557 0.000000
vt 1.905000 3.299557 0.000000
vt -0.986101 3.680177 0.000000
vt 0.986101 3.680177 0.000000
vt 0.000000 3.810000 0.000000
vt 3.299557 -1.905000 0.000000
vt -3.299557 -1.905000 0.000000
vt 2.694077 -2.694077 0.000000
vt -2.694077 -2.694077 0.000000
vt 1.905000 -3.299557 0.000000
vt -1.905000 -3.299557 0.000000
vt 0.986101 -3.680177 0.000000
vt -0.986101 -3.680177 0.000000
vt 0.000000 -3.810000 0.000000
vt 3.680177 0.986101 0.000000
vt -3.680177 0.986101 0.000000
vt 3.810000 -0.000000 0.000000
vt -3.810000 0.000000 0.000000
vt 3.680177 -0.986101 0.000000
vt -3.680177 -0.986101 0.000000
vt 3.299557 -1.905000 0.000000
vt -3.299557 -1.905000 0.000000
vt 2.694077 -2.694077 0.000000
vt -2.694077 -2.694077 0.000000
vt 1.905000 -3.299557 0.000000
vt -1.905000 -3.299557 0.000000
vt 0.986101 -3.680177 0.000000
vt -0.986101 -3.680177 0.000000
vt -0.000000 -3.810000 0.000000
vt -3.299557 1.905000 0.000000
vt 3.299557 1.905000 0.000000
vt -2.694077 2.694077 0.000000
vt 2.694077 2.694077 0.000000
vt -1.905000 3.299557 0.000000
vt 1.905000 3.299557 0.000000
vt -0.986101 3.680177 0.000000
vt 0.986101 3.680177 0.000000
vt -0.000000 3.810000 0.000000
vn -2.453452 0.000000 -0.657400
vn -2.453452 0.000000 -0.657400
vn -2.540000 0.000000 -0.000000
vn -2.540000 0.000000 -0.000000
vn -2.453452 0.000000 0.657400
vn -2.453452 0.000000 0.657400
vn -2.199705 0.000000 1.270000
vn -2.199705 0.000000 1.270000
vn -1.796051 0.000000 1.796051
vn -1.796051 0.000000 1.796051
vn -1.270000 0.000000 2.199705
vn -1.270000 0.000000 2.199705
vn -0.657400 0.000000 2.453452
vn -0.657400 0.000000 2.453452
vn 0.000000 -0.000000 2.540000
vn 0.000000 -0.000000 2.540000
vn 0.657400 -0.000000 2.453452
vn 0.657400 -0.000000 2.453452
vn 1.270000 -0.000000 2.199705
vn 1.270000 -0.000000 2.199705
vn 1.796051 -0.000000 1.796051
vn 1.796051 -0.000000 1.796051
vn 2.199705 -0.000000 1.270000
vn 2.199705 -0.000000 1.270000
vn 2.453452 -0.000000 0.657400
vn 2.453452 -0.000000 0.657400
vn 2.540000 0.000000 0.000000
vn 2.540000 0.000000 0.000000
vn 2.453452 0.000000 -0.657400
vn 2.453452 0.000000 -0.657400
vn 2.199705 0.000000 -1.270000
vn 2.199705 0.000000 -1.270000
vn 1.796051 0.000000 -1.796051
vn 1.796051 0.000000 -1.796051
vn 1.270000 0.000000 -2.199705
vn 1.270000 0.000000 -2.199705
vn 0.657400 0.000000 -2.453452
vn 0.657400 0.000000 -2.453452
vn 0.000000 0.000000 -2.540000
vn 0.000000 0.000000 -2.540000
vn -0.657400 0.000000 -2.453452
vn -0.657400 0.000000 -2.453452
vn -1.270000 0.000000 -2.199705
vn -1.270000 0.000000 -2.199705
vn -1.796051 0.000000 -1.796051
vn -1.796051 0.000000 -1.796051
vn -2.199705 0.000000 -1.270000
vn -2.199705 0.000000 -1.270000
vn 0.000000 2.540000 0.000000
vn 0.000000 2.540000 0.000000
vn 0.000000 2.540000 0.000000
vn 0.000000 2.540000 0.000000
vn 0.000000 2.540000 0.000000
vn 0.000000 2.540000 0.000000
vn 0.000000 2.540000 0.000000
vn 0.000000 2.540000 0.000000
vn 0.000000 2.540000 0.000000
vn 0.000000 2.540000 0.000000
vn 0.000000 2.540000 0.000000
vn 0.000000 2.540000 0.000000
vn 0.000000 2.540000 0.000000
vn 0.000000 2.540000 0.000000
vn 0.000000 2.540000 0.000000
vn 0.000000 2.540000 0.000000
vn 0.000000 2.540000 0.000000
vn 0.000000 2.540000 0.000000
vn 0.000000 2.540000 0.000000
vn 0.000000 2.540000 0.000000
vn 0.000000 2.540000 0.000000
vn 0.000000 2.540000 0.000000
vn 0.000000 2.540000 0.000000
vn 0.000000 2.540000 0.000000
vn 0.000000 -2.540000 0.000000
vn 0.000000 -2.540000 0.000000
vn 0.000000 -2.540000 0.000000
vn 0.000000 -2.540000 0.000000
vn 0.000000 -2.540000 0.000000
vn 0.000000 -2.540000 0.000000
vn 0.000000 -2.540000 0.000000
vn 0.000000 -2.540000 0.000000
vn 0.000000 -2.540000 0.000000
vn 0.000000 -2.540000 0.000000
vn 0.000000 -2.540000 0.000000
vn 0.000000 -2.540000 0.000000
vn 0.000000 -2.540000 0.000000
vn 0.000000 -2.540000 0.000000
vn 0.000000 -2.540000 0.000000
vn 0.000000 -2.540000 0.000000
vn 0.000000 -2.540000 0.000000
vn 0.000000 -2.540000 0.000000
vn 0.000000 -2.540000 0.000000
vn 0.000000 -2.540000 0.000000
vn 0.000000 -2.540000 0.000000
vn 0.000000 -2.540000 0.000000
vn 0.000000 -2.540000 0.000000
vn 0.000000 -2.540000 0.000000
usemtl Steel_-_Satin
f 2/1/1 48/2/2 1/3/3
f 1/3/3 48/2/2 25/4/4
f 1/5/3 25/6/4 24/7/5
f 24/7/5 25/6/4 26/8/6
f 24/7/5 26/8/6 23/9/7
f 23/9/7 26/8/6 27/10/8
f 23/9/7 27/10/8 22/11/9
f 22/11/9 27/10/8 28/12/10
f 22/11/9 28/12/10 21/13/11
f 21/13/11 28/12/10 29/14/12
f 21/13/11 29/14/12 20/15/13
f 20/15/13 29/14/12 30/16/14
f 20/15/13 30/16/14 19/17/15
f 19/17/15 30/16/14 31/18/16
f 19/17/15 31/18/16 18/19/17
f 18/19/17 31/18/16 32/20/18
f 18/19/17 32/20/18 17/21/19
f 17/21/19 32/20/18 33/22/20
f 17/21/19 33/22/20 16/23/21
f 16/23/21 33/22/20 34/24/22
f 16/23/21 34/24/22 15/25/23
f 15/25/23 34/24/22 35/26/24
f 15/25/23 35/26/24 14/27/25
f 14/27/25 35/26/24 36/28/26
f 14/27/25 36/28/26 13/29/27
f 13/29/27 36/28/26 37/30/28
f 13/29/27 37/30/28 12/31/29
f 12/31/29 37/30/28 38/32/30
f 12/31/29 38/32/30 11/33/31
f 11/33/31 38/32/30 39/34/32
f 11/33/31 39/34/32 10/35/33
f 10/35/33 39/34/32 40/36/34
f 10/35/33 40/36/34 9/37/35
f 9/37/35 40/36/34 41/38/36
f 9/37/35 41/38/36 8/39/37
f 8/39/37 41/38/36 42/40/38
f 8/39/37 42/40/38 7/41/39
f 7/41/39 42/40/38 43/42/40
f 7/41/39 43/42/40 6/43/41
f 6/43/41 43/42/40 44/44/42
f 6/43/41 44/44/42 5/45/43
f 5/45/43 44/44/42 45/46/44
f 5/45/43 45/46/44 4/47/45
f 4/47/45 45/46/44 46/48/46
f 4/47/45 46/48/46 3/49/47
f 3/49/47 46/48/46 47/50/48
f 3/49/47 47/50/48 2/1/1
f 2/1/1 47/50/48 48/2/2
f 24/51/49 14/52/50 1/53/51
f 1/53/51 14/52/50 13/54/52
f 1/53/51 13/54/52 2/55/53
f 2/55/53 13/54/52 12/56/54
f 2/55/53 12/56/54 3/57/55
f 3/57/55 12/56/54 11/58/56
f 3/57/55 11/58/56 4/59/57
f 4/59/57 11/58/56 10/60/58
f 4/59/57 10/60/58 5/61/59
f 5/61/59 10/60/58 9/62/60
f 5/61/59 9/62/60 6/63/61
f 6/63/61 9/62/60 8/64/62
f 6/63/61 8/64/62 7/65/63
f 14/52/50 24/51/49 15/66/64
f 15/66/64 24/51/49 23/67/65
f 15/66/64 23/67/65 16/68/66
f 16/68/66 23/67/65 22/69/67
f 16/68/66 22/69/67 17/70/68
f 17/70/68 22/69/67 21/71/69
f 17/70/68 21/71/69 18/72/70
f 18/72/70 21/71/69 20/73/71
f 18/72/70 20/73/71 19/74/72
f 48/75/73 38/76/74 25/77/75
f 25/77/75 38/76/74 37/78/76
f 25/77/75 37/78/76 26/79/77
f 26/79/77 37/78/76 36/80/78
f 26/79/77 36/80/78 27/81/79
f 27/81/79 36/80/78 35/82/80
f 27/81/79 35/82/80 28/83/81
f 28/83/81 35/82/80 34/84/82
f 28/83/81 34/84/82 29/85/83
f 29/85/83 34/84/82 33/86/84
f 29/85/83 33/86/84 30/87/85
f 30/87/85 33/86/84 32/88/86
f 30/87/85 32/88/86 31/89/87
f 38/76/74 48/75/73 39/90/88
f 39/90/88 48/75/73 47/91/89
f 39/90/88 47/91/89 40/92/90
f 40/92/90 47/91/89 46/93/91
f 40/92/90 46/93/91 41/94/92
f 41/94/92 46/93/91 45/95/93
f 41/94/92 45/95/93 42/96/94
f 42/96/94 45/95/93 44/97/95
f 42/96/94 44/97/95 43/98/96

g Body2

v -13.348213 80.884197 2.306133
v -13.783992 75.903223 2.306133
v -13.783992 75.903223 3.056133
v -13.348213 80.884197 3.056133
v 16.537627 78.269524 2.306133
v 16.537627 78.269524 3.056133
v 16.101849 73.288551 2.306133
v 16.101849 73.288551 3.056133
vt 0.000000 0.000000 0.000000
vt 12.700000 0.000000 0.000000
vt 0.000000 1.905000 0.000000
vt 12.700000 1.905000 0.000000
vt 0.000000 0.000000 0.000000
vt 76.199999 0.000000 0.000000
vt 0.000000 1.905000 0.000000
vt 76.199999 1.905000 0.000000
vt 0.000000 0.000000 0.000000
vt 12.700000 0.000000 0.000000
vt 0.000000 1.905000 0.000000
vt 12.700000 1.905000 0.000000
vt 0.000000 0.000000 0.000000
vt 76.199999 0.000000 0.000000
vt 0.000000 1.905000 0.000000
vt 76.199999 1.905000 0.000000
vt -38.099999 -6.350000 0.000000
vt 38.099999 -6.350000 0.000000
vt -38.099999 6.350000 0.000000
vt 38.099999 6.350000 0.000000
vt -38.099999 -6.350000 0.000000
vt 38.099999 -6.350000 0.000000
vt -38.099999 6.350000 0.000000
vt 38.099999 6.350000 0.000000
vn -2.530335 0.221376 0.000000
vn -2.530335 0.221376 0.000000
vn -2.530335 0.221376 0.000000
vn -2.530335 0.221376 0.000000
vn 0.221376 2.530335 0.000000
vn 0.221376 2.530335 0.000000
vn 0.221376 2.530335 0.000000
vn 0.221376 2.530335 0.000000
vn 2.530335 -0.221376 0.000000
vn 2.530335 -0.221376 0.000000
vn 2.530335 -0.221376 0.000000
vn 2.530335 -0.221376 0.000000
vn -0.221376 -2.530335 0.000000
vn -0.221376 -2.530335 0.000000
vn -0.221376 -2.530335 0.000000
vn -0.221376 -2.530335 0.000000
vn 0.000000 0.000000 2.540000
vn 0.000000 0.000000 2.540000
vn 0.000000 0.000000 2.540000
vn 0.000000 0.000000 2.540000
vn 0.000000 0.000000 -2.540000
vn 0.000000 0.000000 -2.540000
vn 0.000000 0.000000 -2.540000
vn 0.000000 0.000000 -2.540000
f 49/99/97 50/100/98 52/101/99
f 52/101/99 50/100/98 51/102/100
f 53/103/101 49/104/102 54/105/103
f 54/105/103 49/104/102 52/106/104
f 55/107/105 53/108/106 56/109/107
f 56/109/107 53/108/106 54/110/108
f 50/111/109 55/112/110 51/113/111
f 51/113/111 55/112/110 56/114/112
f 51/115/113 56/116/114 52/117/115
f 52/117/115 56/116/114 54/118/116
f 55/119/117 50/120/118 53/121/119
f 53/121/119 50/120/118 49/122/120

g Body3

v -11.743166 66.543128 7.374771
v -11.267179 61.569245 7.558939
v -10.955030 61.624285 8.238670
v -11.431018 66.598168 8.054502
v 15.385143 68.671573 -5.255531
v 15.697292 68.726614 -4.575800
v 15.861131 63.697690 -5.071363
v 16.173279 63.752730 -4.391632
vt 0.000000 0.000000 0.000000
vt 12.700000 0.000000 0.000000
vt 0.000000 1.905000 0.000000
vt 12.700000 1.905000 0.000000
vt 0.000000 0.000000 0.000000
vt 76.199999 0.000000 0.000000
vt -0.000000 1.905000 0.000000
vt 76.199999 1.905000 0.000000
vt 0.000000 0.000000 0.000000
vt 12.700000 -0.000000 0.000000
vt 0.000000 1.905000 0.000000
vt 12.700000 1.905000 0.000000
vt 0.000000 0.000000 0.000000
vt 76.199999 0.000000 0.000000
vt 0.000000 1.905000 0.000000
vt 76.199999 1.905000 0.000000
vt -38.099999 -6.350000 0.000000
vt 38.099999 -6.350000 0.000000
vt -38.099999 6.350000 0.000000
vt 38.099999 6.350000 0.000000
vt -38.099999 -6.350000 0.000000
vt 38.099999 -6.350000 0.000000
vt -38.099999 6.350000 0.000000
vt 38.099999 6.350000 0.000000
vn -2.296864 -0.180208 1.069366
vn -2.296864 -0.180208 1.069366
vn -2.296864 -0.180208 1.069366
vn -2.296864 -0.180208 1.069366
vn -0.241802 2.526733 -0.093557
vn -0.241802 2.526733 -0.093557
vn -0.241802 2.526733 -0.093557
vn -0.241802 2.526733 -0.093557
vn 2.296864 0.180208 -1.069366
vn 2.296864 0.180208 -1.069366
vn 2.296864 0.180208 -1.069366
vn 2.296864 0.180208 -1.069366
vn 0.241802 -2.526733 0.093557
vn 0.241802 -2.526733 0.093557
vn 0.241802 -2.526733 0.093557
vn 0.241802 -2.526733 0.093557
vn 1.057142 0.186403 2.302022
vn 1.057142 0.186403 2.302022
vn 1.057142 0.186403 2.302022
vn 1.057142 0.186403 2.302022
vn -1.057142 -0.186403 -2.302022
vn -1.057142 -0.186403 -2.302022
vn -1.057142 -0.186403 -2.302022
vn -1.057142 -0.186403 -2.302022
f 57/123/121 58/124/122 60/125/123
f 60/125/123 58/124/122 59/126/124
f 61/127/125 57/128/126 62/129/127
f 62/129/127 57/128/126 60/130/128
f 63/131/129 61/132/130 64/133/131
f 64/133/131 61/132/130 62/134/132
f 58/135/133 63/136/134 59/137/135
f 59/137/135 63/136/134 64/138/136
f 59/139/137 64/140/138 60/141/139
f 60/141/139 64/140/138 62/142/140
f 63/143/141 58/144/142 61/145/143
f 61/145/143 58/144/142 57/146/144

g Body4

v -10.151562 56.661499 11.404909
v -10.401515 51.680525 11.761878
v -9.787151 51.680525 12.192060
v -9.537198 56.661499 11.835091
v 6.990252 54.046826 -13.076139
v 7.604616 54.046826 -12.645956
v 6.740299 49.065853 -12.719169
v 7.354663 49.065853 -12.288987
vt 0.000000 0.000000 0.000000
vt 12.700000 0.000000 0.000000
vt -0.000000 1.905000 0.000000
vt 12.700000 1.905000 0.000000
vt 0.000000 0.000000 0.000000
vt 76.199999 0.000000 0.000000
vt -0.000000 1.905000 0.000000
vt 76.199999 1.905000 0.000000
vt 0.000000 0.000000 0.000000
vt 12.700000 -0.000000 0.000000
vt 0.000000 1.905000 0.000000
vt 12.700000 1.905000 0.000000
vt 0.000000 0.000000 0.000000
vt 76.199999 0.000000 0.000000
vt 0.000000 1.905000 0.000000
vt 76.199999 1.905000 0.000000
vt -38.099999 -6.350000 0.000000
vt 38.099999 -6.350000 0.000000
vt -38.099999 6.350000 0.000000
vt 38.099999 6.350000 0.000000
vt -38.099999 -6.350000 0.000000
vt 38.099999 -6.350000 0.000000
vt -38.099999 6.350000 0.000000
vt 38.099999 6.350000 0.000000
vn -1.451340 0.221376 2.072729
vn -1.451340 0.221376 2.072729
vn -1.451340 0.221376 2.072729
vn -1.451340 0.221376 2.072729
vn 0.126976 2.530335 -0.181340
vn 0.126976 2.530335 -0.181340
vn 0.126976 2.530335 -0.181340
vn 0.126976 2.530335 -0.181340
vn 1.451340 -0.221376 -2.072729
vn 1.451340 -0.221376 -2.072729
vn 1.451340 -0.221376 -2.072729
vn 1.451340 -0.221376 -2.072729
vn -0.126976 -2.530335 0.181340
vn -0.126976 -2.530335 0.181340
vn -0.126976 -2.530335 0.181340
vn -0.126976 -2.530335 0.181340
vn 2.080646 0.000000 1.456884
vn 2.080646 0.000000 1.456884
vn 2.080646 0.000000 1.456884
vn 2.080646 0.000000 1.456884
vn -2.080646 0.000000 -1.456884
vn -2.080646 0.000000 -1.456884
vn -2.080646 0.000000 -1.456884
vn -2.080646 0.000000 -1.456884
f 65/147/145 66/148/146 68/149/147
f 68/149/147 66/148/146 67/150/148
f 69/151/149 65/152/150 70/153/151
f 70/153/151 65/152/150 68/154/152
f 71/155/153 69/156/154 72/157/155
f 72/157/155 69/156/154 70/158/156
f 66/159/157 71/160/158 67/161/159
f 67/161/159 71/160/158 72/162/160
f 67/163/161 72/164/162 68/165/163
f 68/165/163 72/164/162 70/166/164
f 71/167/165 66/168/166 69/169/167
f 69/169/167 66/168/166 65/170/168

g Body5

v -4.099270 65.875341 -13.444564
v -4.821990 61.176878 -14.994441
v -5.501721 61.176878 -14.677478
v -4.779001 65.875341 -13.127600
v 7.814667 55.614737 12.104958
v 7.134937 55.614737 12.421922
v 7.091948 50.916274 10.555080
v 6.412217 50.916274 10.872044
vt -0.000000 0.000000 0.000000
vt 12.700000 0.000000 0.000000
vt -0.000000 1.905000 0.000000
vt 12.700000 1.905000 0.000000
vt 0.000000 0.000000 0.000000
vt 76.199999 -0.000000 0.000000
vt -0.000000 1.905000 0.000000
vt 76.199999 1.905000 0.000000
vt 0.000000 0.000000 0.000000
vt 12.700000 0.000000 0.000000
vt -0.000000 1.905000 0.000000
vt 12.700000 1.905000 0.000000
vt 0.000000 0.000000 0.000000
vt 76.199999 0.000000 0.000000
vt 0.000000 1.905000 0.000000
vt 76.199999 1.905000 0.000000
vt -38.099999 -6.350000 0.000000
vt 38.099999 -6.350000 0.000000
vt -38.099999 6.350000 0.000000
vt 38.099999 6.350000 0.000000
vt -38.099999 -6.350000 0.000000
vt 38.099999 -6.350000 0.000000
vt -38.099999 6.350000 0.000000
vt 38.099999 6.350000 0.000000
vn -1.008713 0.868731 -2.163193
vn -1.008713 0.868731 -2.163193
vn -1.008713 0.868731 -2.163193
vn -1.008713 0.868731 -2.163193
vn 0.367142 2.386819 0.787338
vn 0.367142 2.386819 0.787338
vn 0.367142 2.386819 0.787338
vn 0.367142 2.386819 0.787338
vn 1.008713 -0.868731 2.163193
vn 1.008713 -0.868731 2.163193
vn 1.008713 -0.868731 2.163193
vn 1.008713 -0.868731 2.163193
vn -0.367142 -2.386819 -0.787338
vn -0.367142 -2.386819 -0.787338
vn -0.367142 -2.386819 -0.787338
vn -0.367142 -2.386819 -0.787338
vn -2.302022 0.000000 1.073450
vn -2.302022 0.000000 1.073450
vn -2.302022 0.000000 1.073450
vn -2.302022 0.000000 1.073450
vn 2.302022 -0.000000 -1.073450
vn 2.302022 -0.000000 -1.073450
vn 2.302022 -0.000000 -1.073450
vn 2.302022 -0.000000 -1.073450
f 73/171/169 74/172/170 76/173/171
f 76/173/171 74/172/170 75/174/172
f 77/175/173 73/176/174 78/177/175
f 78/177/175 73/176/174 76/178/176
f 79/179/177 77/180/178 80/181/179
f 80/181/179 77/180/178 78/182/180
f 74/183/181 79/184/182 75/185/183
f 75/185/183 79/184/182 80/186/184
f 75/187/185 80/188/186 76/189/187
f 76/189/187 80/188/186 78/190/188
f 79/191/189 74/192/190 77/193/191
f 77/193/191 74/192/190 73/194/192

g Body6

v -4.099270 65.875341 -13.444564
v -4.821990 61.176878 -14.994441
v -5.501721 61.176878 -14.677478
v -4.779001 65.875341 -13.127600
v 7.814667 55.614737 12.104958
v 7.134937 55.614737 12.421922
v 7.091948 50.916274 10.555080
v 6.412217 50.916274 10.872044
vt -0.000000 0.000000 0.000000
vt 12.700000 0.000000 0.000000
vt -0.000000 1.905000 0.000000
vt 12.700000 1.905000 0.000000
vt 0.000000 0.000000 0.000000
vt 76.199999 -0.000000 0.000000
vt -0.000000 1.905000 0.000000
vt 76.199999 1.905000 0.000000
vt 0.000000 0.000000 0.000000
vt 12.700000 0.000000 0.000000
vt -0.000000 1.905000 0.000000
vt 12.700000 1.905000 0.000000
vt 0.000000 0.000000 0.000000
vt 76.199999 0.000000 0.000000
vt 0.000000 1.905000 0.000000
vt 76.199999 1.905000 0.000000
vt -38.099999 -6.350000 0.000000
vt 38.099999 -6.350000 0.000000
vt -38.099999 6.350000 0.000000
vt 38.099999 6.350000 0.000000
vt -38.099999 -6.350000 0.000000
vt 38.099999 -6.350000 0.000000
vt -38.099999 6.350000 0.000000
vt 38.099999 6.350000 0.000000
vn -1.008713 0.868731 -2.163193
vn -1.008713 0.868731 -2.163193
vn -1.008713 0.868731 -2.163193
vn -1.008713 0.868731 -2.163193
vn 0.367142 2.386819 0.787338
vn 0.367142 2.386819 0.787338
vn 0.367142 2.386819 0.787338
vn 0.367142 2.386819 0.787338
vn 1.008713 -0.868731 2.163193
vn 1.008713 -0.868731 2.163193
vn 1.008713 -0.868731 2.163193
vn 1.008713 -0.868731 2.163193
vn -0.367142 -2.386819 -0.787338
vn -0.367142 -2.386819 -0.787338
vn -0.367142 -2.386819 -0.787338
vn -0.367142 -2.386819 -0.787338
vn -2.302022 0.000000 1.073450
vn -2.302022 0.000000 1.073450
vn -2.302022 0.000000 1.073450
vn -2.302022 0.000000 1.073450
vn 2.302022 -0.000000 -1.073450
vn 2.302022 -0.000000 -1.073450
vn 2.302022 -0.000000 -1.073450
vn 2.302022 -0.000000 -1.073450
f 81/195/193 82/196/194 84/197/195
f 84/197/195 82/196/194 83/198/196
f 85/199/197 81/200/198 86/201/199
f 86/201/199 81/200/198 84/202/200
f 87/203/201 85/204/202 88/205/203
f 88/205/203 85/204/202 86/206/204
f 82/207/205 87/208/206 83/209/207
f 83/209/207 87/208/206 88/210/208
f 83/211/209 88/212/210 84/213/211
f 84/213/211 88/212/210 86/214/212
f 87/215/213 82/216/214 85/217/215
f 85/217/215 82/216/214 81/218/216

# 88 vertices
# 218 texture params
# 216 normals
# 152 facets

# 6 groups
